{"title":"Sergio Leone's Once Upon A Time In America (1984) - 1080p x265 H","uid":13676615,"size":3465086868,"categoryP":"video","categoryS":"hd___movies","magnet":"?xt=urn:btih:6788b8960b4272a0d8cffe858e79c1fe4712c4bf&amp;dn=Sergio+Leone%27s+Once+Upon+A+Time+In+America+%281984%29+-+1080p+x265+H&amp;tr=udp%3A%2F%2Ftracker.leechers-paradise.org%3A6969&amp;tr=udp%3A%2F%2Fzer0day.ch%3A1337&amp;tr=udp%3A%2F%2Fopen.demonii.com%3A1337&amp;tr=udp%3A%2F%2Ftracker.coppersurfer.tk%3A6969&amp;tr=udp%3A%2F%2Fexodus.desync.com%3A6969","seeders":0,"leechers":0,"uploader":"BRSHNKV","files":2,"time":1456424564,"description":"A former Prohibition-era Jewish gangster returns to the Lower East Side of Manhattan over thirty years later, where he once again must confront the ghosts and regrets of his old life.\r\n\r\n\r\nTechnical:\r\n\r\nFormat : MPEG-4\r\nFormat profile : Base Media / Version 2\r\nCodec ID : mp42\r\nFile size : 3.23 GiB\r\nDuration : 4h 12mn\r\nOverall bit rate mode : Variable\r\nOverall bit rate : 1 831 Kbps\r\nEncoded date : UTC 2016-02-24 07:02:38\r\nTagged date : UTC 2016-02-24 07:02:38\r\nWriting application : HandBrake 0.10.2 2015061100\r\n\r\nVideo\r\nID : 1\r\nFormat : HEVC\r\nFormat/Info : High Efficiency Video Coding\r\nFormat profile :   @Main\r\nCodec ID : hev1\r\nCodec ID/Info : High Efficiency Video Coding\r\nDuration : 4h 12mn\r\nBit rate : 1 501 Kbps\r\nWidth : 1 920 pixels\r\nHeight : 1 032 pixels\r\nDisplay aspect ratio : 1.85:1\r\nOriginal display aspect ratio : 1.85:1\r\nFrame rate mode : Constant\r\nFrame rate : 24.000 fps\r\nColor space : YUV\r\nChroma subsampling : 4:2:0\r\nBit depth : 8 bits\r\nBits/(Pixel*Frame) : 0.032\r\nStream size : 2.64 GiB (82%)\r\nWriting library : x265 1.5:[Mac OS X][clang 6.1.0][64 bit]\r\nEncoded date : UTC 2016-02-24 07:02:38\r\nTagged date : UTC 2016-02-24 07:02:38\r\nColor range : Limited\r\nColor primaries : BT.709\r\nTransfer characteristics : BT.709\r\nMatrix coefficients : BT.709\r\n\r\nAudio #1\r\nID : 2\r\nFormat : AAC\r\nFormat/Info : Advanced Audio Codec\r\nFormat profile : LC\r\nCodec ID : 40\r\nDuration : 4h 12mn\r\nBit rate mode : Variable\r\nBit rate : 162 Kbps\r\nChannel(s) : 2 channels\r\nChannel positions : Front: L R\r\nSampling rate : 48.0 KHz\r\nCompression mode : Lossy\r\nStream size : 292 MiB (9%)\r\nTitle : Stereo / Stereo\r\nLanguage : English\r\nEncoded date : UTC 2016-02-24 07:02:38\r\nTagged date : UTC 2016-02-24 07:02:38\r\n\r\nAudio #2\r\nID : 3\r\nFormat : AAC\r\nFormat/Info : Advanced Audio Codec\r\nFormat profile : LC\r\nCodec ID : 40\r\nDuration : 4h 12mn\r\nBit rate mode : Variable\r\nBit rate : 160 Kbps\r\nChannel(s) : 2 channels\r\nChannel positions : Front: L R\r\nSampling rate : 48.0 KHz\r\nCompression mode : Lossy\r\nStream size : 288 MiB (9%)\r\nTitle : Stereo / Stereo\r\nLanguage : Italian\r\nEncoded date : UTC 2016-02-24 07:02:38\r\nTagged date : UTC 2016-02-24 07:02:38\r\n\r\nText #1\r\nID : 4\r\nFormat : Timed Text\r\nMuxing mode : sbtl\r\nCodec ID : tx3g\r\nDuration : 4h 3mn\r\nBit rate mode : Variable\r\nBit rate : 34 bps\r\nStream size : 61.5 KiB (0%)\r\nLanguage : Italian\r\nEncoded date : UTC 2016-02-24 07:02:38\r\nTagged date : UTC 2016-02-24 07:02:38\r\n\r\nText #2\r\nID : 5\r\nFormat : Timed Text\r\nMuxing mode : sbtl\r\nCodec ID : tx3g\r\nDuration : 4h 3mn\r\nBit rate mode : Variable\r\nBit rate : 34 bps\r\nStream size : 60.0 KiB (0%)\r\nLanguage : English\r\nEncoded date : UTC 2016-02-24 07:02:38\r\nTagged date : UTC 2016-02-24 07:02:38","torrent":{"xt":"urn:btih:6788b8960b4272a0d8cffe858e79c1fe4712c4bf","amp;dn":"Sergio+Leone%27s+Once+Upon+A+Time+In+America+%281984%29+-+1080p+x265+H","amp;tr":["udp%3A%2F%2Ftracker.leechers-paradise.org%3A6969","udp%3A%2F%2Fzer0day.ch%3A1337","udp%3A%2F%2Fopen.demonii.com%3A1337","udp%3A%2F%2Ftracker.coppersurfer.tk%3A6969","udp%3A%2F%2Fexodus.desync.com%3A6969"],"infoHash":"6788b8960b4272a0d8cffe858e79c1fe4712c4bf","infoHashBuffer":{"type":"Buffer","data":[103,136,184,150,11,66,114,160,216,207,254,133,142,121,193,254,71,18,196,191]},"announce":[],"urlList":[]}}